# xmcd
#
# Track frame offsets: 
#        150
#        12644
#        24598
#        36889
#        46946
#        59058
#        68660
#        81284
#        91290
#        104129
#        116038
#        128418
#        139998
#        152311
#        164589
#        176427
#        189025
#        202597
#        213583
#        224919
#
# Disc length: 3157 seconds
#
# Revision: 1
# Processed by: cddbd v1.5.2PL0 Copyright (c) Steve Scherf et al.
# Submitted via: ExactAudioCopy v0.99pb4
#
DISCID=1f0c5314
DTITLE=Various Artist - Back Street Affair (Country Cheatin' Songs)
DYEAR=2005
DGENRE=Country
TTITLE0=Webb Pierce - Back Street Affair
TTITLE1=Kitty Wels - Paying For That Back Street Affair
TTITLE2=Hank Williams - Your Cheatin' Heart
TTITLE3=Jimmy Wakely And Margaret Whiting - Slipping Around
TTITLE4=Floyd Tillman - I'll Never Slip Around Again
TTITLE5=Red Foley - Cheatin' On Your Baby
TTITLE6=Jimmy Wakely - One Has My Name (The Other Has My Heart)
TTITLE7=Hank Snow And Anita Carter - Down The Trail Of Broken Hearts
TTITLE8=Tex Ritter - I'm Wasting My Tears On You
TTITLE9=Tennessee Ernie Ford And Kay Starr - I'll Never Be Free
TTITLE10=Hank Thomson - The Wild Side Of Life
TTITLE11=Kitty Wells - It Wasn't God Who Made Honky Tonk Angels
TTITLE12=Tex Ritter - You Two-Timed Me One Time To Often
TTITLE13=Faron Young - I Heard The Juke Box Playing
TTITLE14=Ernest Tubb - I Don't Blame You
TTITLE15=Jenny Lou Carson and Her Tumbleweed Troubadours - I'll Never Tr
TTITLE15=ust You Again
TTITLE16=Ray Price - I Made A Mistake And I'm Sorry
TTITLE17=Ferlin Huskey and Jean Shepherd - Forgive Me, John
TTITLE18=Carl Smith - I Won't Be At Home
TTITLE19=Hank Thompson - I Find You Cheatin' On Me
EXTD=
EXTT0=
EXTT1=
EXTT2=
EXTT3=
EXTT4=
EXTT5=
EXTT6=
EXTT7=
EXTT8=
EXTT9=
EXTT10=
EXTT11=
EXTT12=
EXTT13=
EXTT14=
EXTT15=
EXTT16=
EXTT17=
EXTT18=
EXTT19=
PLAYORDER=
